# xmcd CD database file
#
# Track frame offsets:
#	150
#	6432
#	32482
#	52122
#	70605
#	85747
#	103452
#	115065
#	134500
#	143600
#	161275
#	172745
#	195495
#	212832
#	224707
#	243352
#
# Disc length: 3587 seconds
#
# Revision: 0
# Processed by: cddbd v1.5.2PL0 Copyright (c) Steve Scherf et al.
# Submitted via: CDex 1.79
#
DISCID=e00e0110
DTITLE=VAriousr - "This Is Jazz" The Historic Broadcasts - Vol. 4 - CD 2
DYEAR=1947
DGENRE=Jazz
TTITLE0=Program Introduction
TTITLE1=Original Dixieland One Step
TTITLE2=I Ain't Got Nobody
TTITLE3=Hotter Than That
TTITLE4=Shine
TTITLE5=Memphis Blues
TTITLE6=Yesterdays
TTITLE7=King Porter Stomp
TTITLE8=Program Introduction
TTITLE9=I'm Crazy 'bout My Baby
TTITLE10=Wild Cat Blues
TTITLE11=Squeeze Me
TTITLE12=Ain't Misbehavin'
TTITLE13=Chocolate Bar
TTITLE14=Blue Turning Grey Over You
TTITLE15=I've Got A Feeling I'm Falling
EXTD=YEAR: 1947
EXTT0=
EXTT1=
EXTT2=
EXTT3=
EXTT4=
EXTT5=
EXTT6=
EXTT7=
EXTT8=
EXTT9=
EXTT10=
EXTT11=
EXTT12=
EXTT13=
EXTT14=
EXTT15=
PLAYORDER=
